# xmcd
#
# Track frame offsets: 
#        150
#        1794
#        20194
#        36399
#        52388
#        66229
#        80352
#        94115
#        105542
#        108234
#        122721
#        135530
#        154026
#        170000
#        183789
#
# Disc length: 2487 seconds
#
# Revision: 1
# Processed by: cddbd v1.5.2PL0 Copyright (c) Steve Scherf et al.
# Submitted via: ExactAudioCopy v0.95b4
#
DISCID=c509b50f
DTITLE=Tété - Le Sacre des Lemmings et autres Contes de la Lisière
DYEAR=2006
DGENRE=Blues
TTITLE0=L'Aube des Lemmings
TTITLE1=Fils de Cham
TTITLE2=Anna Lee Soleil
TTITLE3=Madeleine Bas de laine
TTITLE4=La Relance
TTITLE5=Comme Feuillets au Vent
TTITLE6=Caroline Oh Yeah Hey !
TTITLE7=A la Vie à la Mort
TTITLE8=Le Sacre des Lemmings
TTITLE9=A Flanc de Certitudes
TTITLE10=Mon Trésor
TTITLE11=Par Monts et Vallons (Le Long de la Route)
TTITLE12=Les Visages et les Moments
TTITLE13=La Croisée des Chemins
TTITLE14=Le Crépuscule des Lemmings
EXTD=YEAR: 2006
EXTT0=
EXTT1=
EXTT2=
EXTT3=
EXTT4=
EXTT5=
EXTT6=
EXTT7=
EXTT8=
EXTT9=
EXTT10=
EXTT11=
EXTT12=
EXTT13=
EXTT14=
PLAYORDER=
